<svg width="145" height="36" viewBox="0 0 145 36" fill="none" xmlns="http://www.w3.org/2000/svg">
<path d="M31.3215 6C29.0065 6 26.7436 6.67265 24.8187 7.93287C22.8939 9.19309 21.3937 10.9843 20.5078 13.08C19.6219 15.1756 19.3901 17.4817 19.8417 19.7064C20.2934 21.9312 21.4081 23.9747 23.045 25.5787C24.682 27.1827 26.7675 28.275 29.038 28.7175C31.3085 29.16 33.6619 28.9329 35.8007 28.0648C37.9394 27.1968 39.7674 25.7268 41.0536 23.8407C42.3397 21.9547 43.0261 19.7373 43.0261 17.4689C43.0266 15.9627 42.7242 14.4711 42.1361 13.0794C41.5481 11.6877 40.6859 10.4232 39.599 9.35816C38.512 8.29308 37.2215 7.4483 35.8012 6.8721C34.3809 6.29589 32.8587 5.99955 31.3215 6V6ZM31.3498 22.4827C30.3368 22.4834 29.3463 22.1896 28.5037 21.6386C27.6612 21.0875 27.0043 20.304 26.6163 19.3871C26.2284 18.4702 26.1267 17.4611 26.3241 16.4875C26.5216 15.5139 27.0093 14.6196 27.7256 13.9178C28.4419 13.2159 29.3546 12.738 30.3482 12.5445C31.3418 12.351 32.3716 12.4507 33.3073 12.8308C34.2431 13.211 35.0428 13.8546 35.6051 14.6802C36.1675 15.5058 36.4673 16.4763 36.4666 17.4689C36.468 18.1282 36.3367 18.7813 36.0801 19.3908C35.8236 20.0003 35.4469 20.5542 34.9717 21.0209C34.4964 21.4876 33.9318 21.8578 33.3103 22.1104C32.6889 22.3631 32.0226 22.4931 31.3498 22.4931V22.4827Z" fill="#1C1F2A"/>
<path d="M18.114 20.1854C17.5153 21.0954 16.6321 21.7911 15.5964 22.1684C14.5608 22.5457 13.4283 22.5844 12.3683 22.2786C11.3084 21.9729 10.3779 21.3391 9.71602 20.4722C9.05417 19.6052 8.6965 18.5516 8.6965 17.4689C8.6965 16.3863 9.05417 15.3327 9.71602 14.4657C10.3779 13.5987 11.3084 12.965 12.3683 12.6593C13.4283 12.3535 14.5608 12.3922 15.5964 12.7695C16.6321 13.1468 17.5153 13.8424 18.114 14.7524C18.1299 14.7767 18.153 14.7956 18.1802 14.8067C18.2074 14.8178 18.2373 14.8205 18.2661 14.8145C18.2949 14.8084 18.3212 14.794 18.3414 14.773C18.3616 14.752 18.3748 14.7255 18.3792 14.697C18.8665 12.5062 19.9253 10.4767 21.4521 8.8066C19.7568 7.36517 17.6744 6.43176 15.4528 6.11761C13.2313 5.80346 10.9645 6.12182 8.92242 7.03475C6.88039 7.94768 5.14931 9.41667 3.93548 11.2667C2.72166 13.1166 2.07629 15.2696 2.07629 17.4689C2.07629 19.6683 2.72166 21.8212 3.93548 23.6712C5.14931 25.5212 6.88039 26.9902 8.92242 27.9031C10.9645 28.8161 13.2313 29.1344 15.4528 28.8203C17.6744 28.5061 19.7568 27.5727 21.4521 26.1313C19.9239 24.4621 18.8649 22.4322 18.3792 20.2409C18.3732 20.2134 18.3592 20.1882 18.339 20.1683C18.3187 20.1485 18.293 20.1348 18.2649 20.1289C18.2369 20.1231 18.2077 20.1253 18.1809 20.1353C18.1541 20.1453 18.1309 20.1628 18.114 20.1854Z" fill="#00A56D"/>
<path d="M51.3291 16.2008L55.6786 28.432H60.9333L65.1908 16.2008H65.3782L65.3853 28.432H72.0014V6.72765H62.2735L58.366 18.4079H58.2105L54.303 6.72765H44.5609V28.432H51.1771L51.1629 16.2008H51.3291Z" fill="#1C1F2A"/>
<path d="M73.5397 28.432H92.5889V22.2194H80.8171V20.1231H88.0096V14.8806H80.8171V12.6804H92.5889V6.72765H73.5397V28.432Z" fill="#1C1F2A"/>
<path d="M128.983 28.432H136.388V12.6908H142.908V6.72765H122.462V12.6908H128.983V28.432ZM94.0952 28.432H111.91V22.2298H101.5V6.72765H94.0952V28.432Z" fill="#1C1F2A"/>
<path d="M120.906 6.72765H113.502V28.4355H120.906V6.72765Z" fill="#1C1F2A"/>
<path d="M140.932 26.1486H141.324C141.529 26.1486 141.745 26.1867 141.745 26.4362C141.745 26.6857 141.504 26.7446 141.243 26.7446H140.932V26.1486ZM140.634 27.784H140.932V26.9975H141.25L141.77 27.8014H142.088L141.54 26.9733C141.608 26.9753 141.675 26.9634 141.739 26.9383C141.802 26.9133 141.859 26.8755 141.906 26.8275C141.953 26.7796 141.99 26.7224 142.013 26.6598C142.037 26.5972 142.046 26.5305 142.042 26.4639C142.042 26.1174 141.83 25.9303 141.374 25.9303H140.634V27.784ZM139.927 26.8416C139.94 26.583 140.029 26.3336 140.185 26.1243C140.341 25.9151 140.555 25.7552 140.803 25.6644C141.05 25.5736 141.32 25.5559 141.577 25.6135C141.835 25.6712 142.07 25.8016 142.252 25.9886C142.435 26.1756 142.558 26.411 142.605 26.6657C142.653 26.9204 142.623 27.1831 142.52 27.4215C142.417 27.6598 142.244 27.8631 142.024 28.0064C141.804 28.1497 141.546 28.2266 141.282 28.2276C141.098 28.2287 140.917 28.1932 140.748 28.1232C140.579 28.0532 140.427 27.9502 140.3 27.8204C140.173 27.6907 140.075 27.537 140.01 27.3687C139.946 27.2003 139.918 27.021 139.927 26.8416V26.8416ZM139.63 26.8416C139.623 27.1632 139.713 27.4797 139.89 27.7506C140.067 28.0215 140.323 28.2343 140.624 28.3619C140.926 28.4895 141.259 28.5259 141.582 28.4666C141.904 28.4072 142.202 28.2548 142.435 28.0288C142.669 27.8028 142.828 27.5136 142.893 27.1983C142.958 26.8829 142.925 26.5558 142.799 26.2588C142.673 25.9618 142.459 25.7086 142.185 25.5315C141.91 25.3545 141.589 25.2617 141.26 25.265C141.045 25.2632 140.832 25.303 140.632 25.3822C140.432 25.4613 140.251 25.5783 140.097 25.7263C139.944 25.8744 139.822 26.0506 139.738 26.245C139.654 26.4393 139.61 26.6479 139.609 26.8589" fill="#1C1F2A"/>
</svg>
